<?xml version="1.0" encoding="UTF-8" standalone="no"?>
<svg
   xmlns:dc="http://purl.org/dc/elements/1.1/"
   xmlns:cc="http://creativecommons.org/ns#"
   xmlns:rdf="http://www.w3.org/1999/02/22-rdf-syntax-ns#"
   xmlns:svg="http://www.w3.org/2000/svg"
   xmlns="http://www.w3.org/2000/svg"
   xmlns:sodipodi="http://sodipodi.sourceforge.net/DTD/sodipodi-0.dtd"
   xmlns:inkscape="http://www.inkscape.org/namespaces/inkscape"
   version="1.1"
   id="Calque_1"
   x="0px"
   y="0px"
   viewBox="0 0 1920 1080"
   style="enable-background:new 0 0 1920 1080;"
   xml:space="preserve"
   sodipodi:docname="background_apajh3.svg"
   inkscape:version="1.0.2-2 (e86c870879, 2021-01-15)"><metadata
   id="metadata5370"><rdf:RDF><cc:Work
       rdf:about=""><dc:format>image/svg+xml</dc:format><dc:type
         rdf:resource="http://purl.org/dc/dcmitype/StillImage" /><dc:title></dc:title></cc:Work></rdf:RDF></metadata><defs
   id="defs5368">
	

		
		
		
		
		
		
	</defs><sodipodi:namedview
   pagecolor="#ffffff"
   bordercolor="#666666"
   borderopacity="1"
   objecttolerance="10"
   gridtolerance="10"
   guidetolerance="10"
   inkscape:pageopacity="0"
   inkscape:pageshadow="2"
   inkscape:window-width="3200"
   inkscape:window-height="1721"
   id="namedview5366"
   showgrid="false"
   inkscape:zoom="0.74635417"
   inkscape:cx="1011.5797"
   inkscape:cy="486.40614"
   inkscape:window-x="-9"
   inkscape:window-y="-9"
   inkscape:window-maximized="1"
   inkscape:current-layer="Calque_1"
   inkscape:document-rotation="0" />
<style
   type="text/css"
   id="style5347">
	.st0{fill:#FADCE6;}
	.st1{fill:#FFD485;}
	.st2{fill:#FDEF87;}
	.st3{display:none;fill:#FFFFFF;}
</style>



<path
   class="st3"
   d="m 1643.4498,1290.6096 c 2.8,-1.6 5.5,-3.4 8.1,-5.2 4.5,-5.2 8.4,-10.7 12.1,-16.3 13.8,-26.4 23.6,-53.8 33.7,-81.1 5.3,-14.2 10.6,-28.4 16.8,-42.3 8,-18.1 18.9,-35.3 29.4,-52.6 23,-41.4 41,-84.2 56.1,-127.50004 28.6,-82.1 46.8,-165.9 73.6,-248.3 25.7,-78.9 59.3,-156.5 76.2,-236.7 2.1,-13.7 3.4,-27.4 5.7,-41 2.7,-16.4 6.1,-32.6 9.3,-48.9 2.1,-12.7 3.6,-25.5 3.2,-38.2 -5.5,-6.6 -9.8,-13.7 -12.7,-21.3 -0.9,-5.1 -1.9,-10.3 -2.9,-15.4 -1.2,-1.4 -2.3,-2.9 -3.3,-4.3 -13.7,-20 -19.7,-40 -20.1,-62.5 -0.2,-14.4 2.3,-28.4 1.5,-42.7 -5.4,-19.4 -13.8,-38.2 -21.3,-57.2 -4.5,-11.4 -8.7,-23 -11.4,-34.7 -4.3,-18.2 -8.3,-36.9 -7.4,-55.5 0.4,-8.1 2.1,-15.8 5,-23.1 H 970.34976 V 1316.5096 h 649.70004 c 4.7,-9.8 12.5,-18.5 23.4,-25.9 z"
   id="path5355" /><g
   id="g3784"><rect
     x="124"
     class="st0"
     width="27"
     height="1080"
     id="rect5349"
     style="fill:#f4b5ca;fill-opacity:1" /><rect
     x="34"
     class="st1"
     width="27"
     height="1080"
     id="rect5351"
     style="fill:#f49f5c;fill-opacity:1" /><rect
     x="81"
     class="st2"
     width="27"
     height="1080"
     id="rect5353"
     style="fill:#faec55;fill-opacity:1" /><g
     id="g3773"><path
       id="Path_1_2_"
       class="st2"
       d="m 1456.6498,263.30956 c -2.4,0.2 -6.9,0.7 -10.1,1.1 l -5.7,0.6 c 1.5,22.1 2.8,36.1 3.9,45.3 1.1,9.2 2.8,21.7 3.8,27.6 1,6 3.3,17.7 5.1,26 l 3.3,15.2 h 24.8 c 2.8,-10.9 4.8,-19.7 6.3,-26.6 1.4,-6.9 3.7,-20 5.1,-29.3 1.4,-9.2 3.1,-22.7 3.8,-29.8 0.7,-7.2 1.3,-16.4 1.3,-20.6 0.1,-7.4 0,-7.6 -3.4,-8.3 -1.9,-0.4 -10.3,-1 -18.6,-1.3 -8.4,-0.2 -17.2,-0.2 -19.6,0.1 z"
       style="fill:#f5f5f5;fill-opacity:1" /><path
       id="Path_3_2_"
       class="st2"
       d="m 1337.6498,311.60956 c -5.3,4.9 -13.1,13.3 -17.2,18.5 -4.1,5.2 -7.5,10.1 -7.5,10.8 0,0.8 6.1,5.1 13.5,9.6 7.4,4.5 20.9,12.4 29.9,17.5 9,5 24.9,13.3 35.3,18.4 10.4,5.1 22.4,10.8 26.8,12.6 4.4,1.8 8.1,3.3 8.3,3.1 0.2,-0.1 1.7,-2 3.3,-4.1 1.6,-2.1 5,-5.6 7.5,-7.8 l 4.5,-4 c -5.1,-5.5 -10.7,-11.3 -15.7,-16.4 -5,-5.1 -16.6,-16 -25.7,-24.3 -9.1,-8.3 -24.4,-21.2 -34,-28.7 -9.6,-7.5 -17.9,-13.8 -18.4,-14 -0.4,0 -5.2,3.9 -10.6,8.8 z m 248.1,-3.8 c -2.8,2.2 -13.1,10.3 -23,18.1 -9.9,7.8 -25.6,21.3 -34.8,29.9 -9.2,8.6 -20,19 -23.9,23 l -7.1,7.3 c 7.8,7.6 10.9,11.2 12,13 1.1,1.8 2.6,3.2 3.5,3.2 0.9,0 8.7,-3.2 17.3,-7.2 8.7,-3.9 21.7,-10.1 29,-13.7 7.3,-3.6 24.6,-13 38.4,-21 13.9,-8 26.3,-15.2 27.7,-16.1 1.8,-1.2 2.2,-2.2 1.5,-3.6 -0.6,-1.1 -3.4,-4.9 -6.2,-8.4 -2.8,-3.5 -7.7,-9.2 -10.8,-12.5 -3.1,-3.3 -8.3,-8.3 -11.4,-11.1 -3.1,-2.8 -6.1,-5.1 -6.4,-5.1 -0.4,0.3 -3,2 -5.8,4.2 z"
       style="fill:#f5f5f5;fill-opacity:1" /><path
       id="Path_5_2_"
       class="st2"
       d="m 1384.2498,417.80956 c -9.7,0.5 -26.4,1.7 -37.2,2.6 -10.7,1 -27.9,3 -38.1,4.4 -10.2,1.4 -18.9,2.6 -19.2,2.6 -0.3,0 -0.6,1.6 -0.6,3.5 0,1.9 0.9,8.1 2,13.8 1.1,5.7 3.7,14.9 5.8,20.6 2.1,5.7 3.9,10.4 4,10.6 0.1,0.2 11.1,-2.4 24.4,-5.7 13.3,-3.3 33.5,-8.9 44.7,-12.4 11.3,-3.5 27,-8.9 35,-11.8 8,-3 16.5,-6.2 18.9,-7.2 l 4.4,-1.9 c -3.3,-7.8 -4.4,-12.4 -4.6,-15.2 l -0.4,-5.1 c -16.7,0.2 -29.5,0.7 -39.1,1.2 z m 131.1,1.5 c -0.4,0.9 -0.7,2.9 -0.7,4.3 0,1.5 -1.1,5.1 -2.5,8.1 l -2.5,5.4 c 20,8.1 33.8,13.2 43.5,16.6 9.7,3.3 25,8.2 34,10.9 9,2.7 23.8,6.6 32.8,8.9 9,2.2 16.7,3.6 17.2,3.1 0.4,-0.5 2,-4.1 3.4,-8 1.5,-3.9 3.8,-11.2 5.1,-16.3 1.4,-5.1 2.9,-12.2 3.5,-15.9 0.9,-6.1 0.8,-6.7 -1.5,-7.3 -1.4,-0.4 -9,-1.6 -17,-2.8 -8,-1.2 -23.3,-3.1 -34,-4.3 -10.7,-1.2 -27.2,-2.7 -36.5,-3.3 -9.4,-0.6 -23.1,-1.1 -30.4,-1.1 -11,0.1 -13.8,0.4 -14.4,1.7 z m -80.7,33.4 c -2.3,2.5 -8.1,9.2 -13,14.8 -4.8,5.7 -14.2,17.4 -20.8,26 -6.6,8.6 -17.2,23.5 -23.5,33.1 -6.3,9.5 -11.3,18 -11.2,18.9 0.2,0.8 5.4,4.1 11.7,7.3 6.2,3.2 17.2,7.8 24.3,10.1 7.1,2.4 13.3,4.3 13.9,4.4 0.6,0.1 1.9,-1.8 3,-4.1 1.2,-2.3 5.3,-10.9 9.3,-19.3 4,-8.4 10,-22.3 13.4,-30.9 3.4,-8.6 9.1,-24.3 12.5,-34.7 3.4,-10.4 6.2,-19.6 6.2,-20.3 0,-0.7 -1.8,-1.6 -4.1,-1.9 -2.3,-0.3 -7.1,-2.2 -10.8,-4.3 l -6.7,-3.8 z m 57.3,-0.2 c -3.1,1.8 -7.6,3.5 -9.9,4 -4.1,0.8 -4.2,0.9 -3.4,5.1 0.4,2.4 3.4,12.4 6.6,22.2 3.2,9.8 8.9,25.7 12.7,35.2 3.8,9.5 10.2,24.2 14.1,32.5 4,8.5 8,15.3 9,15.5 1,0.2 8.3,-1.9 16.3,-4.6 8,-2.7 18.9,-7.3 24.3,-10.1 5.4,-2.8 9.8,-5.6 9.8,-6.2 0,-0.6 -5.8,-9.9 -12.8,-20.6 -7,-10.7 -18.1,-26.6 -24.7,-35.2 -6.6,-8.6 -16.9,-21.5 -22.8,-28.5 -6,-7 -11.4,-12.7 -12.2,-12.6 -0.8,0 -3.9,1.5 -7,3.3 z"
       style="fill:#f5f5f5;fill-opacity:1" /><path
       id="Path_6_2_"
       class="st0"
       d="m 1742.0498,487.80956 c -1.5,0.3 -2.4,1.3 -2.2,2.3 0.2,1 1.2,8.2 2.2,15.9 1.1,7.8 3.3,19.7 4.9,26.6 1.7,6.9 3.9,15.3 5,18.7 l 2,6.2 h 11.3 c 2.8,-8.8 4.8,-15.8 6.2,-21.1 1.4,-5.3 3.3,-14.9 4.4,-21.1 1,-6.3 2.2,-14.8 2.7,-19 0.8,-7.3 0.7,-7.6 -2.1,-8.4 -1.6,-0.4 -9.4,-0.8 -17.4,-0.7 -8,0.1 -15.7,0.4 -17,0.6 z m -70.5,47.3 c -1.6,3.1 -3.8,8.4 -4.9,11.7 -1.1,3.3 -2.3,7.8 -2.7,10 -0.7,4 -0.6,4.1 4,5.1 2.6,0.6 10.7,2 17.9,3.2 7.3,1.2 17.8,2.7 23.3,3.3 5.5,0.6 15.8,1.4 22.7,1.8 l 12.6,0.7 c 3,-8.4 2.9,-9.1 0.9,-10.5 -1.2,-0.9 -9.6,-5.4 -18.6,-10 -9,-4.6 -23.6,-11.3 -32.4,-14.7 -8.8,-3.4 -16.9,-6.3 -18,-6.3 -1,0 -3.1,2.4 -4.8,5.7 z m 153,0.6 c -8.7,3.4 -23.1,10 -32.1,14.7 -9,4.6 -17.4,9.1 -18.6,10 -1.9,1.4 -2,2.1 -0.6,6 l 1.6,4.5 c 18.6,-1.1 28.8,-1.9 34.7,-2.5 5.9,-0.6 16.7,-2.1 23.9,-3.3 7.3,-1.2 15.4,-2.7 17.9,-3.2 4.6,-1 4.7,-1.1 4,-5.1 -0.4,-2.2 -1.6,-6.8 -2.7,-10 -1.1,-3.2 -3.3,-8.5 -4.9,-11.7 -2,-3.8 -3.8,-5.7 -5.2,-5.7 -1.3,0 -9.3,2.8 -18,6.3 z m -87.8,48.2 c -5.4,3.7 -16.4,12.4 -24.3,19.3 -8,6.8 -16.8,14.9 -19.5,17.8 l -5,5.3 c 11.9,9.4 19,13.8 23.4,15.8 l 8.1,3.7 c 3.9,-4.4 8.4,-10.9 12.6,-17.3 4.2,-6.4 10.5,-17.6 14,-24.7 3.6,-7.2 7.2,-14.8 8.2,-17 1.7,-3.8 1.6,-4 -2,-6.7 -2.1,-1.5 -4.2,-2.8 -4.6,-2.8 -0.7,-0.2 -5.5,2.8 -10.9,6.6 z m 30.5,-3.9 -3.8,2.8 c 3.7,8.6 7.9,17 11.6,24.2 3.7,7.2 10.6,18.8 15.2,25.8 4.7,7 9.1,12.7 9.8,12.7 0.7,0 4.6,-1.6 8.7,-3.5 4.1,-1.9 10.9,-6.2 15.1,-9.6 l 7.7,-6.1 c -9.7,-9.9 -18.2,-17.6 -25.2,-23.6 -6.9,-6 -17.3,-14.1 -23,-18.2 -5.7,-4 -10.8,-7.3 -11.3,-7.3 -0.6,-0.1 -2.8,1.2 -4.8,2.8 z"
       style="fill:#f5f5f5;fill-opacity:1" /><path
       id="Path_7_2_"
       class="st1"
       d="m 1464.2498,610.30956 c -2.4,0.3 -5.7,0.7 -7.3,1 l -2.9,0.6 c 1.1,30.6 2.3,48 3.3,58.4 1,10.4 3,26.8 4.4,36.3 1.4,9.5 4,25.2 5.8,34.7 1.8,9.5 3.6,17.7 4.1,18.1 0.5,0.4 4.5,0.3 9,-0.2 4.9,-0.6 11.5,-0.6 16.4,0 4.5,0.5 8.3,0.9 8.4,0.8 0.1,-0.1 1.9,-9 4.1,-19.7 2.1,-10.7 5,-27.3 6.4,-36.9 1.4,-9.5 3.4,-25.9 4.4,-36.3 1,-10.4 2.3,-27 2.8,-36.9 0.8,-17 0.7,-17.9 -1.6,-18.8 -1.3,-0.5 -13.8,-1.1 -27.6,-1.3 -14,-0.1 -27.3,-0.1 -29.7,0.2 z m -100.2,27.8 c -4.8,2.5 -12.5,6.8 -17,9.4 -4.5,2.6 -13.2,8.4 -19.2,12.7 -9.1,6.5 -10.8,8.2 -9.9,9.8 0.6,1 7.3,8.5 14.7,16.5 7.4,8 20.4,21.5 28.9,29.8 8.4,8.3 23.2,22.3 32.9,31 9.6,8.7 22.2,19.5 27.9,24.1 l 10.4,8.3 c 12.2,-8.6 18.4,-12.3 21.7,-13.7 5.3,-2.3 5.9,-2.8 4.9,-5 -0.6,-1.3 -5.5,-10 -10.9,-19.3 -5.4,-9.3 -14.3,-23.9 -19.9,-32.5 -5.6,-8.7 -14.1,-21.3 -18.8,-28.2 -4.7,-6.9 -14.8,-20.4 -22.2,-30.1 -7.4,-9.7 -13.7,-17.6 -14.1,-17.6 -0.3,0.2 -4.6,2.3 -9.4,4.8 z m 227.7,10.8 c -6.2,7.9 -16.6,21.9 -23.2,31.2 -6.6,9.3 -16.5,23.9 -22.1,32.5 -5.6,8.7 -14.4,23.2 -19.7,32.3 -5.3,9.1 -9.6,17.3 -9.6,18.2 0,0.9 0.6,1.6 1.3,1.6 0.7,0 4.2,1.6 7.9,3.6 3.6,2 9.2,5.7 12.3,8.2 l 5.7,4.6 c 42,-36.7 61.6,-54.6 70.6,-63.5 9,-8.9 22.7,-23 30.5,-31.5 7.8,-8.4 14.2,-15.8 14.2,-16.4 0,-0.6 -4.4,-4.4 -9.8,-8.5 -5.4,-4.1 -17.5,-11.8 -26.8,-17.1 -9.4,-5.3 -17.7,-9.7 -18.5,-9.7 -0.9,0.2 -6.6,6.6 -12.8,14.5 z m -326.6,81.9 c -0.9,1.6 -3.8,7.9 -6.5,13.8 -2.7,6 -6.6,16.5 -8.7,23.3 -2.1,6.9 -3.8,13.6 -3.7,14.9 0,2.2 1.9,2.9 23,7.8 12.7,3 30.1,6.9 38.7,8.6 8.7,1.8 24.3,4.7 34.7,6.5 10.4,1.8 29.7,4.8 42.8,6.6 13.2,1.8 25.5,3.3 27.4,3.3 3,0 3.5,-0.4 3.5,-3.2 0,-1.8 1.2,-6.3 2.6,-10 1.4,-3.7 3.7,-8.4 5,-10.3 l 2.4,-3.5 c -14.2,-6.7 -29.6,-13.5 -43.5,-19.4 -13.9,-5.9 -35.4,-14.5 -47.9,-19.1 -12.5,-4.6 -32.2,-11.5 -43.8,-15.3 -11.6,-3.8 -21.9,-6.9 -22.8,-6.9 -0.9,-0.1 -2.3,1.3 -3.2,2.9 z m 419.5,5 c -11.4,3.7 -29,9.8 -39.1,13.4 -10.1,3.6 -27.6,10.3 -39.1,14.9 -11.4,4.6 -28.4,11.9 -37.7,16.1 -9.3,4.3 -17.1,8.1 -17.3,8.5 -0.3,0.4 1,3.6 2.8,7 1.8,3.4 4.1,9.4 5.1,13.3 1,3.9 1.9,7.1 2.1,7.2 0.2,0.1 9.7,-1 21.1,-2.4 11.4,-1.4 30.2,-4.1 41.6,-5.9 11.4,-1.8 30.7,-5.3 42.8,-7.7 12.1,-2.4 30.3,-6.4 40.3,-8.8 10.1,-2.4 19.5,-4.5 21.1,-4.8 2.4,-0.3 2.7,-0.9 2.1,-3.4 -0.4,-1.6 -2.1,-7.9 -3.8,-13.8 -1.7,-6 -4.6,-14.5 -6.4,-19 -1.8,-4.5 -4.9,-11.2 -6.8,-14.9 -2.5,-4.6 -4.3,-6.8 -5.8,-6.7 -1.2,0.2 -11.5,3.3 -23,7 z m -296,93.5 c -10.7,1.4 -30,4.3 -42.8,6.5 -12.8,2.1 -33.8,6.1 -46.6,8.7 -12.8,2.7 -29.5,6.3 -37.2,8.2 -7.6,1.8 -14.4,3.8 -15.1,4.3 -0.8,0.7 -0.7,3.5 0.4,8.3 0.9,4 3.7,12.9 6.1,19.8 2.4,6.9 6.5,16.3 9,20.9 2.5,4.6 4.8,8.4 4.9,8.4 0.2,0 9.8,-3 21.4,-6.7 11.6,-3.6 33,-11 47.6,-16.3 14.6,-5.3 39.5,-15.3 55.4,-22.2 15.9,-6.8 30.1,-13.2 31.5,-14 2.5,-1.5 2.5,-1.6 -1.1,-8.3 -2,-3.7 -4.3,-9.7 -5.1,-13.3 -1.4,-6.1 -1.7,-6.5 -5.2,-6.7 -2.1,-0.1 -12.5,0.9 -23.2,2.4 z m 172.1,-1.5 c -0.3,0.8 -1.2,4.1 -1.9,7.4 -0.8,3.3 -3,8.9 -5,12.5 l -3.6,6.5 c 8,4 22.6,10.4 37.5,16.8 14.9,6.5 34.8,14.6 44.1,18.2 9.3,3.6 26.4,9.6 37.8,13.5 11.4,3.9 24.9,8.3 29.9,9.9 l 9.1,2.8 c 6.6,-12.2 10.2,-19.9 12.3,-24.9 2.1,-5.1 5.1,-13.8 6.6,-19.5 1.6,-5.7 2.6,-11 2.2,-11.9 -0.4,-1 -8.3,-3.5 -21.9,-6.7 -11.7,-2.8 -26.9,-6.3 -33.9,-7.8 -6.9,-1.5 -23.7,-4.6 -37.2,-7 -13.5,-2.4 -34.2,-5.6 -46,-7.1 -11.8,-1.5 -23.2,-3.1 -25.5,-3.4 -2.6,-0.5 -4.1,-0.2 -4.5,0.7 z m -153.6,55.4 c -13.3,11.5 -32.6,29.2 -42.9,39.3 -10.3,10.1 -24.2,24.3 -30.9,31.4 -6.7,7.2 -13.3,14.4 -14.6,16 l -2.5,3 c 4.9,4.4 12,9.5 18.9,14.3 6.9,4.7 18.2,11.6 25,15.30004 7.2,3.9 12.8,6.2 13.2,5.6 0.5,-0.6 7.4,-9.60004 15.4,-20.10004 8,-10.4 20,-26.8 26.6,-36.3 6.6,-9.5 16.5,-24.7 22.1,-33.6 5.6,-9 12.8,-20.9 16,-26.6 3.2,-5.7 5.8,-10.9 5.8,-11.7 0,-0.8 -3.3,-2.9 -7.3,-4.8 -4,-1.9 -9.8,-5.5 -12.9,-8.1 -3.1,-2.6 -6.1,-4.7 -6.7,-4.7 -0.6,0.1 -11.9,9.5 -25.2,21 z m 129.4,-15.7 c -3.5,2.8 -9.5,6.5 -13.2,8.3 -3.8,1.7 -7,3.3 -7.2,3.5 -0.2,0.2 5.4,10.3 12.4,22.3 7,12.1 16.4,27.6 20.9,34.4 4.5,6.8 11.9,17.8 16.4,24.4 4.5,6.6 14.4,20.1 21.9,30.1 7.5,10.00004 14.4,18.10004 15.2,18.10004 0.9,0 6.1,-2.4 11.7,-5.3 5.5,-2.9 14.9,-8.40004 20.8,-12.20004 5.9,-3.8 13.7,-9.3 17.4,-12.3 l 6.7,-5.4 c -16,-17.6 -26.4,-28.6 -33.4,-35.8 -7,-7.2 -17.8,-17.9 -24,-23.9 -6.2,-6 -21.8,-20 -34.7,-31.2 -12.8,-11.2 -23.6,-20.3 -24,-20.3 -0.2,0.1 -3.4,2.5 -6.9,5.3 z m -67.9,25.7 c -1.2,5.4 -3.4,17.6 -5.1,27.1 -1.7,9.5 -4.2,26.9 -5.6,38.5 -1.4,11.6 -3.3,32.5 -4.1,46.30004 -0.9,13.8 -1.3,25.4 -1,25.7 0.3,0.3 8,1.1 17,1.7 9,0.6 20.9,0.9 26.5,0.5 5.6,-0.4 13.8,-0.9 18.3,-1.2 l 8.2,-0.6 c -1.5,-31.30004 -2.8,-49.00004 -3.8,-59.40004 -1,-10.4 -3,-26.8 -4.4,-36.3 -1.4,-9.5 -4,-25.2 -5.8,-34.7 l -3.3,-17.3 h -34.8 z"
       style="fill:#f5f5f5;fill-opacity:1" /></g></g>
</svg>
